<?xml version="1.0" encoding="utf-8"?>
<!-- Generator: Adobe Illustrator 12.0.0, SVG Export Plug-In  -->
<!DOCTYPE svg PUBLIC "-//W3C//DTD SVG 1.1//EN" "http://www.w3.org/Graphics/SVG/1.1/DTD/svg11.dtd" [
	<!ENTITY ns_flows "http://ns.adobe.com/Flows/1.0/">
	<!ENTITY ns_svg "http://www.w3.org/2000/svg">
	<!ENTITY ns_xlink "http://www.w3.org/1999/xlink">
]>
<svg  version="1.1" xmlns="&ns_svg;" xmlns:xlink="&ns_xlink;" xmlns:a="http://ns.adobe.com/AdobeSVGViewerExtensions/3.0/"
	 width="440" height="424" viewBox="-0.167 -0.579 440 424" enable-background="new -0.167 -0.579 440 424" xml:space="preserve">
<defs>
</defs>
<path fill="#FFD04E" d="M152.387,299.503c0,0,18.117-7.396,31.463-9.112c12.035-1.548,30.947-0.173,30.947-0.173
	s0.258,0.215,0.258,0.43c0,0.301-0.258,0.473-0.258,0.473s-19.6,0.129-35.246,3.912c-18.163,4.391-27.165,15.646-27.165,15.646
	V299.503z"/>
<path fill="#FFD04E" d="M291.393,299.503c0,0-18.117-7.396-31.463-9.112c-12.035-1.548-30.947-0.173-30.947-0.173
	s-0.258,0.215-0.258,0.43c0,0.301,0.258,0.473,0.258,0.473s19.6,0.129,35.245,3.912c18.163,4.391,27.165,15.646,27.165,15.646
	V299.503z"/>
<path fill="#FFD04E" d="M164.592,51.177c0,0,9.859,12.839,17.192,31.407c6.757,17.107,8.041,32.607,7.565,34.157
	c-0.916,2.98-5.58,4.298-5.958,10.315c-0.231,3.668,5.83,19.522,6.418,38.743c0.835,27.239-3.667,60.29-3.667,60.29
	s0.916-24.758-2.294-39.888c-3.546-16.711-8.397-33.703-8.021-47.453c0.457-16.733,10.544-29.8,10.544-29.8s0.228-5.731-6.19-18.34
	c-4.556-8.954-10.544-14.672-10.544-14.672L164.592,298.3V51.177z"/>
<path fill="#FFD04E" d="M276.795,51.177c0,0-9.858,12.839-17.192,31.407c-6.757,17.107-8.041,32.607-7.565,34.157
	c0.916,2.98,5.58,4.298,5.959,10.315c0.23,3.668-5.83,19.522-6.418,38.743c-0.836,27.239,3.666,60.29,3.666,60.29
	s-0.915-24.758,2.295-39.888c3.546-16.711,8.397-33.703,8.021-47.453c-0.456-16.733-10.544-29.8-10.544-29.8
	s-0.229-5.731,6.189-18.34c4.557-8.954,10.544-14.672,10.544-14.672l5.045,222.365V51.177z"/>
<path fill="#FFD04E" d="M235.328,67.712l-1.043,299.359c0,0-0.172,0.259-0.301,0.259s-0.301-0.259-0.301-0.259l-3.568-299.374
	L235.328,67.712z"/>
<path fill="#FFD04E" d="M229.839,55.525c0,4.53,1.292,6.268,2.882,6.268c1.596,0,2.886-1.702,2.886-6.268
	c0-4.568-1.29-6.268-2.886-6.268C231.132,49.258,229.839,50.997,229.839,55.525z"/>
<path fill="#FFD04E" d="M211.768,67.712l-1.042,299.359c0,0-0.172,0.259-0.301,0.259c-0.128,0-0.3-0.259-0.3-0.259l-3.568-299.374
	L211.768,67.712z"/>
<path fill="#FFD04E" d="M206.277,55.525c0,4.53,1.292,6.268,2.882,6.268c1.596,0,2.885-1.702,2.885-6.268
	c0-4.568-1.29-6.268-2.885-6.268C207.569,49.258,206.277,50.997,206.277,55.525z"/>
<path fill="#FFD04E" d="M223.776,52.555l-1.52,281.026c0,0-0.172,0.258-0.301,0.258c-0.129,0-0.301-0.258-0.301-0.258
	l-2.923-281.026H223.776z"/>
<path fill="#FFD04E" d="M218.368,38.16c0,4.53,1.292,6.268,2.883,6.268c1.596,0,2.885-1.701,2.885-6.268
	c0-4.568-1.29-6.267-2.885-6.267C219.661,31.893,218.368,33.631,218.368,38.16z"/>
<polygon fill="#FFD04E" points="163.305,358.261 165.755,347.559 156.6,340.766 169.451,340.341 173.449,330.107 177.575,340.298 
	190.427,340.722 181.271,347.516 183.721,358.218 173.538,352.698 "/>
<polygon fill="#FFD04E" points="258.211,358.261 260.661,347.559 251.506,340.766 264.357,340.341 268.354,330.107 272.481,340.298 
	285.333,340.722 276.178,347.516 278.628,358.218 268.443,352.698 "/>
<polygon fill="#FFD04E" points="258.211,28.154 260.661,17.453 251.506,10.658 264.357,10.234 268.354,0 272.481,10.191 
	285.333,10.616 276.178,17.41 278.628,28.111 268.443,22.59 "/>
<polygon fill="#FFD04E" points="163.764,28.154 166.214,17.453 157.059,10.658 169.911,10.234 173.908,0 178.034,10.191 
	190.886,10.616 181.731,17.41 184.181,28.111 173.997,22.59 "/>
<polygon fill="#FFD04E" points="83.813,75.606 86.264,64.905 77.108,58.111 89.96,57.687 93.957,47.453 98.084,57.644 
	110.936,58.068 101.78,64.862 104.23,75.563 94.049,70.043 "/>
<polygon fill="#FFD04E" points="69.372,306.854 71.821,296.152 62.666,289.358 75.518,288.934 79.515,278.7 83.642,288.891 
	96.494,289.315 87.338,296.109 89.788,306.811 79.607,301.29 "/>
<polygon fill="#FFD04E" points="32.234,229.829 34.684,219.127 25.529,212.333 38.381,211.909 42.378,201.675 46.504,211.866 
	59.356,212.291 50.201,219.084 52.651,229.786 42.47,224.265 "/>
<polygon fill="#FFD04E" points="41.862,145.01 44.313,134.309 35.157,127.515 48.009,127.091 52.006,116.856 56.133,127.047 
	68.984,127.472 59.829,134.266 62.279,144.967 52.098,139.446 "/>
<polygon fill="#FFD04E" points="370.868,145.01 373.317,134.309 364.162,127.515 377.015,127.091 381.012,116.856 385.139,127.047 
	397.99,127.472 388.835,134.266 391.284,144.967 381.104,139.446 "/>
<polygon fill="#FFD04E" points="380.223,229.829 382.672,219.127 373.517,212.333 386.369,211.909 390.366,201.675 394.493,211.866 
	407.345,212.291 398.189,219.084 400.639,229.786 390.458,224.265 "/>
<polygon fill="#FFD04E" points="347.312,306.854 349.761,296.152 340.605,289.358 353.458,288.934 357.455,278.7 361.581,288.891 
	374.433,289.315 365.277,296.109 367.728,306.811 357.547,301.29 "/>
<polygon fill="#FFD04E" points="332.77,75.606 335.22,64.905 326.064,58.111 338.915,57.687 342.913,47.453 347.04,57.644 
	359.892,58.068 350.736,64.862 353.186,75.563 343.004,70.043 "/>
<path fill="#3E6CAD" d="M439.133,395.728c0,0-30.923-4.466-52.727-3.897c-26.361,0.688-44.635,2.734-58.913,4.586
	c-12.379,1.604-30.491,2.291-30.491,2.291l0.017,10.832c0,0,16.842,0.121,34.829-2.808c9.859-1.605,42.18-4.814,65.334-4.356
	c12.146,0.24,22.466,1.146,41.723,3.897L439.133,395.728z"/>
<path fill="#FFD04E" d="M438.904,406.273v16.62c0,0-20.175-5.158-41.035-6.533c-22.885-1.508-58.916-0.689-110.495,5.96
	c-1.375,0-6.369,1.426-7.105-1.146c-0.459-1.604,6.522-3.358,11.004-4.355c4.127-0.917,5.729-2.293,5.729-2.293l0.017-4.985
	c0,0,7.365,0.311,36.801-3.404c9.236-1.166,24.621-3.575,53.232-3.851C414.162,402.024,438.904,406.273,438.904,406.273z"/>
<path fill="#3E6CAD" d="M223.282,392.225c-41.264,0-81.162,6.303-81.162,6.303v-13.797c0,0,49.983-6.655,81.39-6.655
	c31.407,0,73.972,7.075,73.972,7.075l0.014,13.441C297.496,398.592,264.545,392.225,223.282,392.225z"/>
<path fill="#FFD04E" d="M223.282,408.106c-41.264,0-81.162,6.354-81.162,6.354v-16.159c0,0,42.404-6.084,81.146-6.084
	c38.74,0,74.217,6.061,74.217,6.061l-0.093,16.124C297.39,414.402,264.545,408.106,223.282,408.106z"/>
<path fill="#3E6CAD" d="M0,395.728c0,0,30.925-4.466,52.725-3.897c26.363,0.688,44.636,2.734,58.914,4.586
	c12.379,1.604,30.491,2.291,30.491,2.291l-0.016,10.832c0,0-16.841,0.121-34.83-2.808c-9.859-1.605-42.181-4.814-65.333-4.356
	c-12.146,0.24-22.466,1.146-41.723,3.897L0,395.728z"/>
<path fill="#FFD04E" d="M0.229,406.273v16.62c0,0,20.173-5.158,41.035-6.533c22.885-1.508,58.916-0.689,110.495,5.96
	c1.375,0,6.369,1.426,7.105-1.146c0.46-1.604-6.522-3.358-11.003-4.355c-4.126-0.917-5.73-2.293-5.73-2.293l-0.016-4.985
	c0,0-7.366,0.311-36.801-3.404c-9.236-1.166-24.621-3.575-53.23-3.851C24.97,402.024,0.229,406.273,0.229,406.273z"/>
</svg>
